<?xml version="1.0" standalone="no"?>
<!DOCTYPE svg PUBLIC "-//W3C//DTD SVG 20010904//EN"
 "http://www.w3.org/TR/2001/REC-SVG-20010904/DTD/svg10.dtd">
<svg version="1.0" xmlns="http://www.w3.org/2000/svg"
 width="306.000000pt" height="339.000000pt" viewBox="0 0 306.000000 339.000000"
 preserveAspectRatio="xMidYMid meet">

<g transform="translate(0.000000,339.000000) scale(0.100000,-0.100000)"
fill="#000000" stroke="none">
<path d="M1527 3319 c-32 -5 -78 -17 -102 -28 -46 -20 -62 -38 -24 -26 15 5
19 4 15 -4 -4 -6 -1 -11 6 -11 9 0 9 -3 -2 -10 -12 -8 -12 -10 -1 -10 8 0 12
-2 9 -5 -3 -3 -13 -2 -22 1 -14 5 -15 9 -4 16 10 8 9 9 -3 5 -9 -3 -21 -1 -27
5 -6 6 -12 6 -16 -1 -4 -6 -4 -11 0 -11 4 0 -1 -7 -12 -15 -16 -13 -16 -14 -1
-9 11 4 17 1 17 -7 1 -9 4 -8 11 4 6 9 15 15 21 11 7 -4 5 -10 -3 -16 -11 -7
-9 -8 4 -4 11 3 30 9 43 12 13 3 24 10 24 16 0 5 -6 6 -12 2 -9 -5 -9 -2 1 9
14 18 26 23 17 8 -11 -16 23 -20 51 -6 18 10 41 12 67 8 28 -4 37 -3 32 5 -4
7 -2 12 3 12 6 0 11 -5 11 -11 0 -6 9 -9 20 -6 11 3 18 1 14 -4 -3 -5 -1 -9 5
-9 5 0 18 -3 28 -7 15 -6 16 -4 6 8 -10 13 -8 15 15 14 15 0 31 4 35 10 5 6 7
3 3 -7 -3 -11 1 -18 12 -20 13 -3 12 -5 -5 -10 -13 -3 -21 -2 -20 4 1 6 -4 13
-10 15 -25 9 -13 -24 13 -35 14 -7 23 -8 19 -2 -9 14 8 12 25 -2 11 -10 11 -9
0 6 -14 18 -13 18 10 12 24 -7 24 -7 -3 12 -23 16 -26 20 -12 26 9 3 14 2 11
-3 -3 -5 8 -14 24 -21 16 -7 28 -16 25 -20 -3 -4 2 -11 11 -14 21 -8 24 -8 24
5 0 5 -4 7 -10 4 -5 -3 -10 -2 -10 2 0 5 -19 23 -42 41 -68 52 -182 76 -291
61z m-152 -78 c3 -5 2 -12 -3 -15 -5 -3 -9 1 -9 9 0 17 3 19 12 6z"/>
<path d="M1300 3195 c-15 -18 1 -26 23 -10 15 10 15 14 3 18 -8 3 -20 0 -26
-8z"/>
<path d="M1530 2603 c-93 -15 -130 -25 -123 -35 4 -7 0 -9 -10 -5 -19 7 -110
-37 -99 -47 3 -4 0 -11 -7 -15 -9 -6 -5 -8 13 -8 21 0 24 2 16 13 -9 9 -7 15
7 22 10 5 24 7 32 4 9 -3 11 0 7 7 -6 8 0 10 18 5 16 -4 33 -1 44 7 15 13 16
12 3 -3 -7 -10 -22 -18 -32 -18 -10 0 -20 -3 -22 -7 -3 -5 12 -8 33 -8 21 0
36 3 34 6 -2 3 8 11 22 18 30 13 37 14 30 2 -3 -4 19 -9 49 -10 30 0 55 3 55
8 0 5 16 5 38 0 58 -13 119 -11 125 5 3 8 -1 17 -8 20 -8 3 -12 12 -9 19 4 10
-7 16 -42 21 -49 6 -131 6 -174 -1z m200 -43 c0 -5 -4 -10 -9 -10 -6 0 -13 5
-16 10 -3 6 1 10 9 10 9 0 16 -4 16 -10z m-143 -16 c-3 -3 -12 -4 -19 -1 -8 3
-5 6 6 6 11 1 17 -2 13 -5z"/>
<path d="M1755 2580 c-3 -5 -1 -10 4 -10 6 0 11 5 11 10 0 6 -2 10 -4 10 -3 0
-8 -4 -11 -10z"/>
<path d="M1892 2528 c-25 -25 -11 -46 57 -87 75 -45 92 -49 111 -27 24 30 7
58 -55 92 -64 36 -94 41 -113 22z"/>
<path d="M1335 2510 c3 -5 8 -10 11 -10 2 0 4 5 4 10 0 6 -5 10 -11 10 -5 0
-7 -4 -4 -10z"/>
<path d="M1485 2385 c-80 -21 -135 -49 -203 -100 -120 -90 -166 -175 -100
-183 20 -2 33 4 50 25 91 111 187 171 311 194 139 26 300 -24 401 -124 28 -28
55 -50 59 -49 5 2 6 -2 3 -7 -3 -5 1 -15 10 -22 14 -12 45 -72 48 -94 1 -5 8
-30 16 -55 12 -36 15 -113 15 -373 0 -347 0 -346 46 -347 39 0 41 17 37 367
-5 358 -7 381 -58 473 -10 19 -24 46 -30 59 -22 50 -136 148 -221 190 -46 23
-91 40 -101 38 -9 -3 -18 -1 -20 3 -2 4 -39 11 -82 15 -57 6 -77 5 -72 -4 5
-8 0 -8 -19 -1 -31 12 -27 12 -90 -5z"/>
<path d="M2186 2294 c-20 -19 -20 -17 6 -67 11 -23 23 -36 25 -29 9 24 23 11
23 -21 0 -19 12 -67 27 -108 l27 -74 3 -345 c2 -190 5 -355 8 -367 7 -29 36
-30 61 -2 18 20 19 39 16 348 -2 256 -6 340 -18 391 -17 70 -71 192 -101 227
-10 11 -25 31 -33 42 -17 25 -24 26 -44 5z"/>
<path d="M1528 2188 c-29 -10 -36 -27 -30 -71 4 -22 7 -25 18 -16 8 6 14 19
14 28 0 9 7 27 16 39 20 28 17 32 -18 20z"/>
<path d="M1650 2184 c0 -11 -6 -14 -20 -9 -25 8 -70 -19 -70 -40 0 -11 12 -15
49 -15 27 0 56 -3 64 -6 9 -3 16 2 19 14 5 18 51 36 62 24 10 -9 -5 -22 -25
-22 -26 0 -24 -14 6 -34 31 -21 35 -20 35 3 0 11 7 26 15 35 18 18 14 21 -61
46 -69 24 -74 24 -74 4z"/>
<path d="M1422 2118 c-14 -14 -16 -54 -2 -63 20 -12 50 15 50 45 0 32 -25 41
-48 18z"/>
<path d="M1812 2118 c-24 -24 -8 -78 23 -78 14 0 34 40 28 58 -8 21 -38 33
-51 20z"/>
<path d="M1371 2097 c-7 -9 -14 -28 -15 -42 -1 -25 -16 -36 -16 -12 -1 25 -41
-37 -55 -87 -12 -42 -16 -138 -18 -511 l-2 -459 26 -10 c62 -21 59 -43 59 475
l0 472 30 54 c17 30 28 59 24 65 -4 6 -10 25 -13 41 -6 26 -8 28 -20 14z"/>
<path d="M1875 2050 c-10 -11 -24 -20 -32 -20 -18 0 -17 -5 15 -52 l27 -41 3
-291 c2 -186 7 -295 14 -303 17 -21 58 -16 67 8 4 12 6 142 4 288 -5 281 -10
318 -56 394 -23 38 -23 38 -42 17z"/>
<path d="M1550 1966 c-25 -14 -41 -25 -37 -26 4 0 -1 -9 -11 -20 -24 -25 -32
-88 -32 -238 0 -118 9 -152 38 -152 38 0 42 19 42 182 0 155 1 159 25 183 29
30 55 32 86 6 l24 -19 -3 -464 c-4 -514 -4 -513 55 -493 l28 10 0 476 c0 440
-1 477 -18 502 -11 16 -23 25 -30 21 -7 -4 -9 -4 -5 0 14 16 -29 46 -73 51
-35 4 -54 0 -89 -19z"/>
<path d="M674 1923 c-9 -47 3 -229 17 -254 6 -11 16 -18 22 -16 18 6 22 288 5
299 -25 15 -37 8 -44 -29z"/>
<path d="M1072 1868 c-7 -7 -12 -41 -12 -84 0 -78 11 -98 52 -92 21 3 23 9 26
73 4 92 -2 115 -31 115 -13 0 -28 -5 -35 -12z"/>
<path d="M1083 1553 c-18 -7 -16 -20 2 -20 8 0 15 5 15 10 0 6 10 2 21 -9 22
-19 22 -19 8 4 -14 22 -23 25 -46 15z"/>
<path d="M1489 1383 c-20 -23 -26 -442 -7 -454 23 -15 65 -10 73 8 6 18 -2
380 -11 420 -6 32 -38 47 -55 26z"/>
</g>
</svg>
